<svg width="276px" height="50px" viewBox="0 0 276 50" version="1.1" 
    xmlns="http://www.w3.org/2000/svg" 
    xmlns:xlink="http://www.w3.org/1999/xlink">
    <!-- Generator: Sketch 53 (72520) - https://sketchapp.com -->
    <title>og-logo-top</title>
    <desc>Created with Sketch.</desc>
    <g id="Page-1" stroke="none" stroke-width="1" fill="none" fill-rule="evenodd">
        <g id="og-logo-top" fill-rule="nonzero">
            <path d="M6.48430144,32.1338203 L6.48099105,32.1338203 C6.48143244,32.1523793 6.48430144,32.1702832 6.48430144,32.1890605 L6.48430144,32.1338203 Z" id="Path" fill="#676767"/>
            <path d="M23.0696798,37.8504673 C22.9708439,37.8656226 22.8717402,37.8795357 22.7723686,37.8922066 C21.7912414,38.0166792 20.7324383,38.0241326 19.7486327,37.9145669 C19.5999771,37.8981694 19.4510536,37.8787904 19.3032015,37.85643 L19.3032015,38.7796637 L19.3163261,38.7796637 L19.3037372,39.1481124 C19.3032015,39.9796687 20.147994,40.6542056 21.1864407,40.6542056 C22.2248873,40.6542056 23.0696798,39.9796687 23.0696798,39.1508453 L23.0667335,39.1105967 L23.0562875,38.7796637 L23.0696798,38.7796637 L23.0696798,37.8504673 Z" id="Path" fill="#FDC50D"/>
            <path d="M21.379822,28.9719626 C19.2242175,30.3231769 17.1045608,31.5046104 15.0659134,32.4911476 C16.1144764,33.7014639 17.277718,34.9075106 18.5320951,36.0841721 C19.0740973,36.2607341 19.7011593,36.3863117 20.3545492,36.4485981 L22.3802858,36.4485981 C23.1321526,36.3767678 23.838958,36.2235632 24.4333631,36.0035513 C25.0189078,35.4515125 25.5950858,34.8823951 26.1469611,34.3107661 L26.5109962,34.6566067 L26.1472142,34.3107661 C26.7152913,33.7223098 27.2621035,33.1260676 27.7777778,32.5320858 C25.7150807,31.5382652 23.5668176,30.3430182 21.379822,28.9719626" id="Path" fill="#FDC50D"/>
            <path d="M29.1792884,31.0521061 C27.0383102,30.0765923 24.7329332,28.8368247 22.3645788,27.3713039 C22.1801992,27.2573023 21.9955667,27.1418006 21.8104284,27.025049 C21.9917729,26.9057973 22.1736232,26.7847955 22.3557265,26.6627938 C23.5573553,25.8587824 24.7716301,25.0002702 25.9899517,24.0872573 C26.8878221,23.4139977 27.7568594,22.7349881 28.5952933,22.0537284 C29.1539963,21.599222 29.6992945,21.1439655 30.2299232,20.688209 C30.4952376,20.4604558 30.7570111,20.2327026 31.0152437,20.0049493 C31.2623477,19.7866962 31.5056579,19.5686931 31.7456802,19.3509401 C31.5362614,19.1744375 31.3561815,18.9656846 31.2110047,18.7334313 C30.9570718,18.9646846 30.699598,19.1961879 30.4383303,19.4274411 C29.1625956,20.5569572 27.8011206,21.6837232 26.3683219,22.7884888 C26.0817621,23.009492 25.7921673,23.2294951 25.5000433,23.4484982 C24.2033161,24.420762 22.9012776,25.335275 21.6096089,26.1875371 C21.4264939,26.3082888 21.2438848,26.4280405 21.0612757,26.5462922 C20.8786665,26.4280405 20.6958045,26.3082888 20.5126895,26.1875371 C19.8669816,25.761281 19.2184916,25.3197748 18.5694957,24.8630183 C17.9204998,24.4062618 17.2707452,23.9347551 16.6225081,23.4484982 C16.0380071,23.010492 15.4646347,22.5682357 14.9031495,22.1232294 C14.0609218,21.4554699 13.2452509,20.7812104 12.4596775,20.1047008 C11.9358776,19.6536944 11.4254826,19.2016879 10.9289982,18.7496815 C10.6808825,18.5239283 10.4363077,18.2979251 10.1955267,18.0721719 C10.0495911,17.93567 9.90517308,17.799168 9.76227259,17.6629161 C9.56221189,17.4726634 9.36619794,17.2824107 9.17195443,17.092658 C9.03107731,16.9551561 8.89197063,16.8179041 8.75438148,16.6809022 C8.65877725,16.5859008 8.56367887,16.4906495 8.46933925,16.3956481 C2.9078543,10.7913186 -0.1679208,5.56149437 1.05748257,3.14796011 C0.86349198,2.90820671 0.71173924,2.63445283 0.61259412,2.3364486 C-1.42443348,4.99473632 1.75200427,10.89157 8.16128119,17.2524103 C8.22071768,17.3114111 8.28066001,17.3704119 8.34060234,17.4294128 C8.41951377,17.5071639 8.49893104,17.584915 8.57885414,17.6629161 C8.77360349,17.8526688 8.9713879,18.0429215 9.17195443,18.2334242 C9.31434908,18.3689261 9.45826127,18.504428 9.60369097,18.64018 C10.5756673,19.5479428 11.6093563,20.4609558 12.6991939,21.3714687 C13.023186,21.6419726 13.3535011,21.9119764 13.6873572,22.1819802 C14.4764714,22.8202393 15.2911307,23.4564983 16.1325996,24.0872573 C16.4371168,24.3155105 16.741381,24.5402637 17.0453924,24.7617668 C17.3494037,24.98327 17.6529092,25.2012731 17.9559088,25.4160261 C18.5619081,25.8450322 19.165884,26.2607881 19.7665719,26.6627938 C19.9486752,26.7847955 20.1305255,26.9057973 20.3118701,27.025049 C20.1267317,27.1418006 19.9423521,27.2573023 19.7579726,27.3713039 C17.4217392,28.8168244 15.1472185,30.0423418 13.0310266,31.0118555 C10.5599861,32.1438716 8.30645798,32.9256327 6.42396525,33.300638 C6.45178659,33.4518902 6.46847939,33.6068924 6.46847939,33.7656446 C6.46847939,33.8778962 6.45861546,33.9878978 6.44470479,34.0963993 C8.4842616,33.721894 10.9037061,32.8978823 13.5591261,31.6723649 C14.1056889,31.4201113 14.6621156,31.1511075 15.2271416,30.8653535 C15.7921677,30.5795994 16.365793,30.2773451 16.947006,29.9593406 C17.3445982,29.7413375 17.7469959,29.5133343 18.151164,29.280581 C18.632726,29.003577 19.1173231,28.718573 19.6067257,28.4205688 C19.9069432,28.2380662 20.2084253,28.0515635 20.511172,27.8610608 C20.694034,27.7460592 20.8774019,27.6293075 21.0610228,27.5115559 C21.2448965,27.6293075 21.4282644,27.7460592 21.6113794,27.8610608 C24.0647153,29.4038327 26.4391398,30.6968511 28.6504301,31.7121155 C31.309644,32.9331328 33.7301001,33.7493944 35.7658631,34.1121495 C35.750182,33.9983979 35.7395593,33.8833963 35.7395593,33.7656446 C35.7395593,33.6126424 35.7557463,33.4633903 35.7815443,33.3173883 C33.9048687,32.9531331 31.6520993,32.1791221 29.1792884,31.0521061" id="Path" fill="#3A3C3D"/>
            <path d="M5.65665941,1.73439247 C8.17168077,2.1112372 11.4549381,3.29980599 15.0842615,5.14018692 C15.1901896,5.08063176 15.2927753,5.024878 15.39279,4.97241878 C15.5853631,4.87180859 15.7897633,4.77398608 16.007533,4.67616358 C12.02623,2.60313742 8.43418709,1.30762278 5.64971751,0.93457944 C5.67234294,1.07244328 5.68725515,1.21284139 5.68725515,1.35704088 C5.68725515,1.48552796 5.6746569,1.61072049 5.65665941,1.73439247" id="Path" fill="#3A3C3D"/>
            <path d="M27.290831,5.2337971 C33.9831948,1.82054514 39.4836803,0.66635814 41.1002069,2.78562948 C42.7164778,4.90439249 40.1164342,9.85715351 35.0068501,15.342147 C35.2456348,15.4905824 35.460132,15.6740933 35.6403711,15.8878505 C41.0894692,10.035581 43.6460509,4.77501984 41.7529022,2.29330176 C39.8093888,-0.25399225 33.7651184,0.89663636 26.3653484,4.77273231 C26.577289,4.86779198 26.7846278,4.96513917 26.978928,5.06604475 C27.0873271,5.12247054 27.1903573,5.17813382 27.290831,5.2337971" id="Path" fill="#3A3C3D"/>
            <path d="M35.4941284,19.6261682 C35.2998725,19.7949282 35.0805513,19.9357674 34.8416792,20.0420146 C34.8414286,20.068947 34.840426,20.0958794 34.8399247,20.1230589 C40.0547556,25.5851499 42.7420039,30.5562803 41.1247922,32.6584911 C41.086693,32.7081554 41.044834,32.7551018 41.0024737,32.8010599 C41.128552,33.061736 41.2142753,33.3451441 41.2446043,33.6448598 C41.4398628,33.4953726 41.6168236,33.3290834 41.7649594,33.1368503 C43.6528761,30.6827886 41.0280403,25.4331918 35.4941284,19.6261682" id="Path" fill="#3A3C3D"/>
            <path d="M7.49831031,19.8976416 C7.49831031,19.7618739 7.50150466,19.6280883 7.50469901,19.4943027 L7.50813907,19.359526 C7.51329917,19.1293651 7.52214505,18.9078756 7.53295669,18.6915888 C1.57255202,24.8397824 -1.34241193,30.4912349 0.59581918,33.0685905 C0.76167947,33.2890891 0.95948323,33.480353 1.18579039,33.6448598 C1.20790509,33.3423556 1.28137506,33.0544687 1.39882872,32.7898704 C1.3364161,32.7259506 1.27695212,32.6600488 1.22313967,32.5886965 C-0.37378782,30.465221 2.31142891,25.4224932 7.49831031,19.8976416" id="Path" fill="#3A3C3D"/>
            <g id="Group" transform="translate(1.000000, 0.000000)" fill="#FDC50D">
                <path d="M31.6834289,20.0934579 C29.7209763,21.8162021 27.6209348,23.4814158 25.4293398,25.0479014 C24.4954421,25.7155958 23.5263712,26.3771958 22.5404896,27.0202691 C24.489235,28.1367497 26.3934968,29.10526 28.2152569,29.9065421 C30.8863442,26.4581285 32.3020618,23.2369114 32.4241332,20.3269925 C32.4264608,20.2767753 32.4262022,20.226558 32.4274953,20.1765846 C32.4068052,20.1770721 32.386891,20.1795098 32.366201,20.1795098 C32.1300756,20.1795098 31.9019677,20.1478193 31.6834289,20.0934579" id="Path"/>
                <path d="M11.7107801,30.3738318 C13.5289507,29.5465221 15.4245904,28.5524305 17.3615819,27.410596 C16.3649512,26.7414373 15.3842855,26.0527318 14.4381668,25.3566646 C12.0248444,23.5814648 9.7193508,21.6856844 7.58554565,19.722125 C7.55073686,19.6901394 7.51592807,19.6581538 7.481381,19.6261682 C7.47797863,19.755126 7.47457627,19.8845914 7.47457627,20.0158339 C7.47457627,20.1044288 7.47745519,20.1930238 7.47981068,20.281365 L7.48111928,20.3214739 C7.57088932,23.3717815 8.99360057,26.7520992 11.7107801,30.3738318" id="Path"/>
                <path d="M3.00188324,32.2429907 C2.27564036,32.2429907 1.65892665,32.7121074 1.44012601,33.360788 C1.38523257,33.5237255 1.35404896,33.6974062 1.35404896,33.8785047 C1.35404896,33.9831223 1.36487302,34.0851821 1.38394399,34.1844282 C1.52903793,34.9402843 2.19858336,35.5140187 3.00188324,35.5140187 C3.73482673,35.5140187 4.35669475,35.0362051 4.57008336,34.3785719 C4.62136879,34.2207502 4.64971751,34.0529527 4.64971751,33.8785047 C4.64971751,33.7733754 4.63863574,33.6710599 4.61956478,33.5713022 C4.4739554,32.8159577 3.80466769,32.2429907 3.00188324,32.2429907" id="Path"/>
                <path d="M0.66088676,2.49496461 C0.95187055,2.95973299 1.46940418,3.27102804 2.06013479,3.27102804 C2.87689975,3.27102804 3.55448735,2.67785365 3.68412849,1.90332496 C3.69881944,1.81610096 3.70809793,1.72683064 3.70809793,1.63551402 C3.70809793,1.45057867 3.67562321,1.27382856 3.61866358,1.10807737 C3.396753,0.46451258 2.78282616,2.22044605e-16 2.06013479,2.22044605e-16 C1.15161585,2.22044605e-16 0.41242938,0.73360247 0.41242938,1.63551402 C0.41242938,1.65367503 0.41449127,1.67158025 0.41500674,1.68999705 C0.42505844,1.98466582 0.51346184,2.25938307 0.66088676,2.49496461" id="Path"/>
                <path d="M37.3709981,32.2429907 C36.5646056,32.2429907 35.8929985,32.8213293 35.7517703,33.5815338 C35.7339879,33.6779662 35.7231638,33.7769565 35.7231638,33.8785047 C35.7231638,34.0565337 35.7530589,34.2276565 35.806406,34.3882919 C36.0228872,35.0408093 36.6419204,35.5140187 37.3709981,35.5140187 C38.1840912,35.5140187 38.8598218,34.9257043 38.9933185,34.1560356 C39.0087815,34.0654863 39.0188324,33.9734023 39.0188324,33.8785047 C39.0188324,33.6858957 38.9832676,33.5014719 38.9214159,33.3298376 C38.6933374,32.6972717 38.0853861,32.2429907 37.3709981,32.2429907" id="Path"/>
                <path d="M15.1429841,9.3376423 C15.1593133,9.76787243 14.8171659,10.129816 14.3780639,10.1458246 C13.9394723,10.1618332 13.5702796,9.8261536 13.5536953,9.39592348 C13.5373661,8.96594349 13.8797687,8.60399989 14.3186155,8.58774119 C14.7574623,8.57173263 15.126655,8.90741218 15.1429841,9.3376423 M14.0295379,6.30351939 C10.9486802,8.14600491 8.79450362,11.410501 7.94538606,15.5144462 C8.0793364,15.6490182 8.21456245,15.7838403 8.35157451,15.9186624 C8.49011743,16.0552355 8.62917064,16.1915584 8.77052014,16.3278813 C8.96493948,16.5159819 9.163186,16.7038324 9.3627082,16.891933 L9.4767573,16.9992404 C9.5823867,17.0987936 9.687761,17.198597 9.7956867,17.2984004 C9.810485,17.3121578 9.8260488,17.3259151 9.8411023,17.3396725 C10.0018427,14.3750868 11.5324485,12.3257406 11.602613,12.2336914 C11.7712628,12.012323 12.0912128,11.9665485 12.3167596,12.1318869 C12.5423065,12.2969752 12.5889977,12.6101427 12.4211133,12.831261 C12.404529,12.8530226 10.7790098,15.0396923 10.8476434,18.0277905 C10.8491742,18.0953267 10.8366722,18.1598612 10.813199,18.219393 C12.4831132,19.7051878 14.2793234,21.1662192 16.1714676,22.5732218 C17.4173333,23.4992171 18.6938162,24.3931953 19.9702991,25.2336449 C21.2470372,24.3931953 22.5235201,23.4992171 23.7693858,22.5732218 C25.9276446,20.9686136 27.9611383,19.2937177 29.8241961,17.5910569 C29.8178176,17.5187683 29.8127147,17.4459793 29.8127147,17.3719397 C29.8127147,16.108514 30.7368444,15.0542 31.9566855,14.8208252 C31.0108686,11.0200422 28.9115479,8.00317852 25.9802042,6.271002 C25.793184,6.16044286 25.5972338,6.05288533 25.3803618,5.9415758 C25.0991937,5.79774886 24.7935318,5.65842434 24.4717958,5.5278545 C24.2176729,5.42454924 23.9895746,5.33975389 23.7744887,5.26821562 L23.7742335,5.26821562 C22.5827134,4.87325436 21.3233251,4.6728972 20.0307681,4.6728972 C18.7155034,4.6728972 17.4326419,4.88150878 16.2176485,5.293229 C15.9966943,5.36801901 15.7701269,5.4538149 15.524934,5.55486895 C15.1881445,5.69394334 14.8929435,5.83026626 14.6219811,5.97084145 C14.4375124,6.06664269 14.2438585,6.17520076 14.0295379,6.30351939" id="Shape"/>
                <path d="M33.7190192,18.7772415 C33.7231426,18.7739163 33.7267507,18.7700794 33.7306164,18.7667542 C34.0849755,18.466458 34.3107345,18.0208738 34.3107345,17.5233645 C34.3107345,17.1683295 34.1950201,16.840664 34.0007025,16.5720857 C33.8342181,16.3418757 33.6092323,16.1566846 33.3471354,16.0372312 C33.3177558,16.0239301 33.2881185,16.0113965 33.2577081,15.999886 C33.1407051,15.9546114 33.0172593,15.9226378 32.8891746,15.9049883 C32.8152102,15.8950126 32.7399572,15.8878505 32.6629002,15.8878505 C32.6574882,15.8878505 32.6520761,15.8886178 32.6466641,15.8886178 C31.7554832,15.8975704 31.0323329,16.6114772 31.0166122,17.4942046 C31.0166122,17.5039245 31.0150659,17.5136445 31.0150659,17.5233645 C31.0150659,17.7272282 31.0544964,17.921372 31.1233065,18.1014473 C31.1354192,18.1326536 31.1477895,18.163604 31.1617062,18.1940429 C31.27974,18.4534128 31.4640067,18.6762049 31.693116,18.8424677 C31.7165681,18.8598613 31.7402779,18.8769992 31.7650186,18.8928581 C31.9204212,18.9936389 32.0941216,19.0683292 32.2799346,19.1125807 C32.4031227,19.1417407 32.5309497,19.1588785 32.6629002,19.1588785 C32.8605681,19.1588785 33.049216,19.1225565 33.2247204,19.0588651 C33.40641,18.9933831 33.5736675,18.8982296 33.7190192,18.7772415" id="Path"/>
            </g>
            <path d="M21.186569,46.728972 C17.5462072,46.728972 14.5951036,47.4612956 14.5951036,48.3646173 C14.5951036,49.2676764 17.5462072,50 21.186569,50 C24.8269309,50 27.7777778,49.2676764 27.7777778,48.3646173 C27.7777778,47.4612956 24.8269309,46.728972 21.186569,46.728972" id="Path" fill="#EDEDEE"/>
            <!-- <g id="Group" transform="translate(62.711864, 7.627119)" fill="#3A3C3D">
                <path d="M2.93810359,15.0633099 C2.93810359,15.8005495 3.05003645,16.4802931 3.27550885,17.1052273 C3.49991013,17.7301616 3.81535727,18.2626721 4.22345697,18.7022217 C4.63209223,19.1423087 5.13177336,19.4894347 5.7246426,19.7473611 C6.31644072,20.0020634 6.97893327,20.1294146 7.71372695,20.1294146 C8.44852063,20.1294146 9.11101318,20.0020634 9.70388243,19.7473611 C10.2956805,19.4894347 10.7948261,19.1423087 11.2039969,18.7022217 C11.6110255,18.2626721 11.9275438,17.7301616 12.1530162,17.1052273 C12.3768819,16.4802931 12.4888147,15.8005495 12.4888147,15.0633099 C12.4888147,14.3260702 12.3768819,13.6463266 12.1530162,13.0213924 C11.9275438,12.3964582 11.6110255,11.8639476 11.2039969,11.424398 C10.7948261,10.984311 10.2956805,10.6344983 9.70388243,10.3792587 C9.11101318,10.1218696 8.44852063,9.99451841 7.71372695,9.99451841 C6.97893327,9.99451841 6.31644072,10.1218696 5.7246426,10.3792587 C5.13177336,10.6344983 4.63209223,10.984311 4.22345697,11.424398 C3.81535727,11.8639476 3.49991013,12.3964582 3.27550885,13.0213924 C3.05003645,13.6463266 2.93810359,14.3260702 2.93810359,15.0633099 M0,15.0633099 C0,13.998826 0.19922977,13.0036599 0.59661819,12.0842597 C0.99507774,11.1616355 1.54081736,10.3545407 2.23437262,9.65706468 C2.92792788,8.9622754 3.74412727,8.41256972 4.6829708,8.01493316 C5.62127877,7.61514721 6.6313523,7.41525424 7.71372695,7.41525424 C8.79503048,7.41525424 9.80510401,7.61514721 10.7439475,8.01493316 C11.6833266,8.41256972 12.4989905,8.9622754 13.1925457,9.65706468 C13.8866365,10.3545407 14.4334473,11.1616355 14.8308357,12.0842597 C15.2282241,13.0036599 15.4274539,13.998826 15.4274539,15.0633099 C15.4274539,16.1277937 15.2282241,17.1251092 14.8308357,18.0574057 C14.4334473,18.9897022 13.8866365,19.7973343 13.1925457,20.4846008 C12.4989905,21.1691805 11.6833266,21.7119006 10.7439475,22.1116866 C9.80510401,22.5114725 8.79503048,22.7092161 7.71372695,22.7092161 C6.6313523,22.7092161 5.62127877,22.5114725 4.6829708,22.1116866 C3.74412727,21.7119006 2.92792788,21.1691805 2.23437262,20.4846008 C1.54081736,19.7973343 0.99507774,18.9897022 0.59661819,18.0574057 C0.19922977,17.1251092 6.66133815e-16,16.1277937 6.66133815e-16,15.0633099" id="Shape"/>
                <path d="M29.2511696,11.6325887 C28.7446779,11.0990283 28.2120894,10.6930702 27.653404,10.4152527 C27.0947187,10.1401272 26.4311133,10.0022952 25.6593926,10.0022952 C24.9084427,10.0022952 24.254424,10.1401272 23.6957387,10.4152527 C23.1375859,10.6930702 22.6715709,11.0737233 22.296096,11.5545198 C21.9195559,12.0380085 21.6362188,12.5914899 21.4439544,13.2176561 C21.2511573,13.8438223 21.1542262,14.4947552 21.1542262,15.1709932 C21.1542262,15.8472312 21.2655372,16.4884728 21.489757,17.094718 C21.7129116,17.7004247 22.0266062,18.2286011 22.4324387,18.6797853 C22.8388037,19.1304312 23.3255896,19.4836255 23.8938616,19.741522 C24.4626661,19.9967265 25.1017724,20.1243287 25.8117129,20.1243287 C26.5834337,20.1243287 27.2422457,19.9870352 27.7908119,19.7086793 C28.3383129,19.4335538 28.8448046,19.0275956 29.3129499,18.4945737 L31.2600935,20.4624477 C30.5506856,21.2641343 29.7230431,21.8375367 28.7803614,22.1880391 C27.8366145,22.5363878 26.8358806,22.7092161 25.7818879,22.7092161 C24.666115,22.7092161 23.6451427,22.526158 22.7226994,22.1557347 C21.7981257,21.787465 21.0019059,21.26898 20.3329747,20.6029717 C19.6629783,19.9369634 19.1453023,19.1352768 18.7799465,18.2011424 C18.4145908,17.2696999 18.2324455,16.238114 18.2324455,15.1085381 C18.2324455,13.9816543 18.4145908,12.9446842 18.7799465,12.0008584 C19.1453023,11.0591863 19.658185,10.2478084 20.316997,9.56887838 C20.9768742,8.8926404 21.7688334,8.36446408 22.6912767,7.98650304 C23.6153178,7.60584997 24.6448114,7.41525424 25.7818879,7.41525424 C26.8358806,7.41525424 27.8467337,7.60584997 28.8101863,7.98650304 C29.773639,8.36446408 30.6114007,8.94540419 31.3224064,9.72447773 L29.2511696,11.6325887 Z" id="Path"/>
                <path d="M44.2115732,11.6325887 C43.7050609,11.0990283 43.1724507,10.6930702 42.6137426,10.4152527 C42.0550345,10.1401272 41.3908696,10.0022952 40.6191174,10.0022952 C39.8686697,10.0022952 39.2146244,10.1401272 38.6559163,10.4152527 C38.0977408,10.6930702 37.6317068,11.0737233 37.2562166,11.5545198 C36.8796612,12.0380085 36.5963126,12.5914899 36.4040403,13.2176561 C36.2112354,13.8438223 36.1143004,14.4947552 36.1143004,15.1709932 C36.1143004,15.8472312 36.2256159,16.4884728 36.4498448,17.094718 C36.6730085,17.7004247 36.9861833,18.2286011 37.3925649,18.6797853 C37.7989464,19.1304312 38.2857522,19.4836255 38.8540472,19.741522 C39.4228749,19.9967265 40.0620072,20.1243287 40.7719766,20.1243287 C41.5431961,20.1243287 42.2025676,19.9870352 42.7511561,19.7086793 C43.2986794,19.4335538 43.8051917,19.0275956 44.273356,18.4945737 L46.2205789,20.4624477 C45.5106095,21.2641343 44.6834659,21.8375367 43.7407458,22.1880391 C42.7969606,22.5363878 41.796186,22.7092161 40.7421504,22.7092161 C39.6257994,22.7092161 38.6053183,22.526158 37.6823048,22.1557347 C36.7582261,21.787465 35.9619739,21.26898 35.2930154,20.6029717 C34.6229918,19.9369634 34.1047621,19.1352768 33.7393915,18.2011424 C33.3740209,17.2696999 33.1924008,16.238114 33.1924008,15.1085381 C33.1924008,13.9816543 33.3740209,12.9446842 33.7393915,12.0008584 C34.1047621,11.0591863 34.6176657,10.2478084 35.2770371,9.56887838 C35.9369412,8.8926404 36.7283999,8.36446408 37.6514134,7.98650304 C38.5754921,7.60584997 39.6050276,7.41525424 40.7421504,7.41525424 C41.796186,7.41525424 42.8065475,7.60584997 43.770572,7.98650304 C44.7340639,8.36446408 45.5713271,8.94540419 46.2823617,9.72447773 L44.2115732,11.6325887 Z" id="Path"/>
                <path d="M56.6388187,15.3384314 C55.9890431,15.3384314 55.3259634,15.3760456 54.6463865,15.4459007 C53.9668096,15.5184425 53.3478997,15.6560033 52.7912534,15.8607324 C52.2330105,16.0659988 51.7764114,16.352942 51.4219884,16.7204871 C51.0670332,17.090719 50.8898217,17.56036 50.8898217,18.135321 C50.8898217,18.9751939 51.1686771,19.5775595 51.7269199,19.947254 C52.2835663,20.3147992 53.0387109,20.4996465 53.9928858,20.4996465 C54.7416444,20.4996465 55.3813088,20.3722953 55.908686,20.1149062 C56.4360632,19.8596665 56.8617966,19.5270489 57.1858861,19.1175907 C57.5105078,18.7075952 57.7430646,18.2524625 57.8851531,17.7500434 C58.0272417,17.2481616 58.0980198,16.7532652 58.0980198,16.2605183 L58.0980198,15.3384314 L56.6388187,15.3384314 Z M48.9122902,9.56464105 C49.6833998,8.84996993 50.5753112,8.3099365 51.5890888,7.95260094 C52.6028663,7.59526538 53.6166439,7.41525424 54.6314859,7.41525424 C55.6846438,7.41525424 56.5930524,7.54744153 57.3529864,7.81557753 C58.1139848,8.07995211 58.7366199,8.4399744 59.2240846,8.89027094 C59.710485,9.33949278 60.0696975,9.85695766 60.3038509,10.4394415 C60.5364077,11.024612 60.6540166,11.6339632 60.6540166,12.269107 L60.6540166,19.7000746 C60.6540166,20.212166 60.6635956,20.681807 60.6838179,21.1122217 C60.7035081,21.5442484 60.7343737,21.9520946 60.7748184,22.341671 L58.3417522,22.341671 C58.2810852,21.6044313 58.2502195,20.8671916 58.2502195,20.1299519 L58.1895525,20.1299519 C57.5807538,21.0719207 56.8617966,21.7366186 56.03002,22.1267323 C55.1982434,22.5163086 54.2355538,22.7092161 53.1398226,22.7092161 C52.4714212,22.7092161 51.8333533,22.6189419 51.2240224,22.4340946 C50.6168202,22.2492473 50.083057,21.9741258 49.6275222,21.6044313 C49.1709232,21.2368861 48.8106463,20.7796041 48.5472238,20.2374213 C48.2832691,19.6947011 48.1523561,19.0649308 48.1523561,18.3502596 C48.1523561,17.4077535 48.3604333,16.6178539 48.7760555,15.9832474 C49.1906134,15.3507903 49.7589674,14.8338628 50.478989,14.4335395 C51.1979462,14.0337536 52.039834,13.7462731 53.0035879,13.5737848 C53.9668096,13.3991471 54.9965522,13.3115596 56.090687,13.3115596 L58.0980198,13.3115596 L58.0980198,12.6989844 C58.0980198,12.3292898 58.0272417,11.9617447 57.8851531,11.5915128 C57.7430646,11.224505 57.5301979,10.8918874 57.2465531,10.5941973 C56.9629082,10.2970446 56.607953,10.0622241 56.1822197,9.88704907 C55.7564863,9.71456078 55.2493314,9.62751061 54.6612872,9.62751061 C54.13391,9.62751061 53.6719893,9.67694651 53.2776537,9.77957973 C52.8811895,9.88221295 52.5214448,10.0095641 52.1984196,10.1648573 C51.8727336,10.3169264 51.5795098,10.4969376 51.3160872,10.702204 C51.0521325,10.9069331 50.798289,11.10199 50.5545567,11.2846878 L48.9122902,9.56464105 Z" id="Shape"/>
                <path d="M72.6803608,11.4394437 C72.3482717,11.0294482 71.9371137,10.6871583 71.4501587,10.4098874 C70.9604772,10.1347659 70.3633711,9.99505576 69.6572046,9.99505576 C68.9924811,9.99505576 68.4155512,10.1347659 67.9269603,10.4098874 C67.4389147,10.6871583 67.1951645,11.0923177 67.1951645,11.6221416 C67.1951645,12.0547057 67.3363978,12.4018316 67.6161379,12.6667436 C67.8969687,12.9343422 68.2290578,13.1492809 68.6134959,13.3115596 C68.9973888,13.476525 69.4085467,13.5990401 69.8447886,13.6812541 C70.2810305,13.7640055 70.6551079,13.8338606 70.9670208,13.8961928 C71.5690346,14.0385897 72.1350585,14.2137647 72.6650923,14.4184938 C73.1951262,14.6237603 73.6515443,14.8886722 74.0359824,15.2159163 C74.4204206,15.5436978 74.7219728,15.9434838 74.940639,16.4131248 C75.1582146,16.8854525 75.2672751,17.4582641 75.2672751,18.135321 C75.2672751,18.9526253 75.0911424,19.6549374 74.7372412,20.2374213 C74.3844306,20.8220545 73.9269219,21.297069 73.3663511,21.6673008 C72.8057803,22.0343086 72.166686,22.3019073 71.4501587,22.464186 C70.7325408,22.6291514 70.0105605,22.7092161 69.2842178,22.7092161 C68.0578328,22.7092161 66.9824966,22.5270556 66.0576639,22.1568237 C65.1333764,21.7892785 64.306698,21.1122217 63.57981,20.1299519 L65.6988549,18.4104425 C66.155273,18.8602017 66.6651307,19.2599876 67.2273374,19.6076509 C67.7873629,19.9574636 68.4738985,20.1299519 69.2842178,20.1299519 C69.6364831,20.1299519 69.9958374,20.0950244 70.3584634,20.0224826 C70.7221801,19.9526275 71.0444538,19.8397847 71.3247392,19.6850289 C71.6050246,19.5324224 71.8345969,19.3373655 72.0107295,19.102545 C72.1868622,18.8677245 72.2757465,18.5952897 72.2757465,18.2879274 C72.2757465,17.8779319 72.1454192,17.5404782 71.8864006,17.2728795 C71.6262914,17.0079676 71.3143784,16.7984024 70.9506618,16.6457959 C70.5880357,16.4905027 70.2035976,16.368525 69.7978926,16.275564 C69.3932783,16.1836777 69.033924,16.1084492 68.7225564,16.046117 C68.1199973,15.9037201 67.5479752,15.7382173 67.0075805,15.5533701 C66.4671859,15.3712095 65.9905917,15.1234927 65.574526,14.8161304 C65.1590056,14.5114548 64.8263712,14.1213411 64.5777133,13.6490133 C64.3279648,13.178835 64.2036359,12.5968885 64.2036359,11.8994125 C64.2036359,11.142291 64.3634095,10.4824292 64.6867738,9.91982722 C65.0079569,9.35507584 65.433838,8.89027094 65.9638719,8.52003906 C66.4939057,8.15303126 67.0964648,7.87522302 67.7726397,7.69306248 C68.4471787,7.50821522 69.1282613,7.41525424 69.8131611,7.41525424 C70.8110644,7.41525424 71.7658888,7.6001015 72.6803608,7.96818399 C73.5948328,8.33787853 74.3211755,8.94991642 74.8626608,9.80967115 L72.6803608,11.4394437 Z" id="Path"/>
                <path d="M78.7415383,22.2457627 L81.6110403,22.2457627 L81.6110403,7.70167752 L78.7415383,7.70167752 L78.7415383,22.2457627 Z M78.0722667,2.48826661 C78.0722667,1.93375122 78.2797409,1.45975597 78.6935738,1.06037606 C79.1085222,0.66045934 79.6026678,0.46345339 80.1760104,0.46345339 C80.7493531,0.46345339 81.2434986,0.66045934 81.658447,1.06037606 C82.0722799,1.45975597 82.2797541,1.93375122 82.2797541,2.48826661 C82.2797541,3.04009799 82.0722799,3.51463004 81.658447,3.91400996 C81.2434986,4.31338987 80.7493531,4.51307983 80.1760104,4.51307983 C79.6026678,4.51307983 79.1085222,4.31338987 78.6935738,3.91400996 C78.2797409,3.51463004 78.0722667,3.04009799 78.0722667,2.48826661 Z" id="Shape"/>
                <path d="M88.0229514,15.0633099 C88.0229514,15.8005495 88.1348881,16.4802931 88.3603683,17.1052273 C88.5847774,17.7301616 88.8996999,18.2626721 89.3083494,18.7022217 C89.7169988,19.1423087 90.2161617,19.4894347 90.8090515,19.7473611 C91.4008702,20.0020634 92.0633857,20.1294146 92.7987405,20.1294146 C93.5335597,20.1294146 94.1960752,20.0020634 94.7889651,19.7473611 C95.3807837,19.4894347 95.8799466,19.1423087 96.2885961,18.7022217 C96.6956388,18.2626721 97.012168,17.7301616 97.2376483,17.1052273 C97.4620573,16.4802931 97.5739941,15.8005495 97.5739941,15.0633099 C97.5739941,14.3260702 97.4620573,13.6463266 97.2376483,13.0213924 C97.012168,12.3964582 96.6956388,11.8639476 96.2885961,11.424398 C95.8799466,10.984311 95.3807837,10.6344983 94.7889651,10.3792587 C94.1960752,10.1218696 93.5335597,9.99451841 92.7987405,9.99451841 C92.0633857,9.99451841 91.4008702,10.1218696 90.8090515,10.3792587 C90.2161617,10.6344983 89.7169988,10.984311 89.3083494,11.424398 C88.8996999,11.8639476 88.5847774,12.3964582 88.3603683,13.0213924 C88.1348881,13.6463266 88.0229514,14.3260702 88.0229514,15.0633099 M85.0847458,15.0633099 C85.0847458,13.998826 85.2839825,13.0036599 85.6808491,12.0842597 C86.079858,11.1616355 86.6256166,10.3545407 87.319196,9.65706468 C88.0127753,8.9622754 88.8284674,8.41256972 89.7678791,8.01493316 C90.7056841,7.61514721 91.7163283,7.41525424 92.7987405,7.41525424 C93.879546,7.41525424 94.8896546,7.61514721 95.8290663,8.01493316 C96.768478,8.41256972 97.5841701,8.9622754 98.2777495,9.65706468 C98.9713288,10.3545407 99.5181585,11.1616355 99.9160963,12.0842597 C100.312963,13.0036599 100.5122,13.998826 100.5122,15.0633099 C100.5122,16.1277937 100.312963,17.1251092 99.9160963,18.0574057 C99.5181585,18.9897022 98.9713288,19.7973343 98.2777495,20.4846008 C97.5841701,21.1691805 96.768478,21.7119006 95.8290663,22.1116866 C94.8896546,22.5114725 93.879546,22.7092161 92.7987405,22.7092161 C91.7163283,22.7092161 90.7056841,22.5114725 89.7678791,22.1116866 C88.8284674,21.7119006 88.0127753,21.1691805 87.319196,20.4846008 C86.6256166,19.7973343 86.079858,18.9897022 85.6808491,18.0574057 C85.2839825,17.1251092 85.0847458,16.1277937 85.0847458,15.0633099" id="Shape"/>
                <path d="M103.78469,7.78043776 L106.590149,7.78043776 L106.590149,10.0105131 L106.651765,10.0105131 C107.005651,9.23583289 107.618545,8.60957519 108.490445,8.13280782 C109.362891,7.65390487 110.371657,7.41525424 111.514016,7.41525424 C112.220152,7.41525424 112.901205,7.52203304 113.555539,7.73559066 C114.210419,7.94914827 114.78078,8.27962868 115.26935,8.72649798 C115.757375,9.17603676 116.146704,9.74943895 116.438428,10.4525774 C116.728516,11.1525125 116.874651,11.9821838 116.874651,12.938388 L116.874651,22.2457627 L114.069192,22.2457627 L114.069192,13.7007887 C114.069192,13.0302178 113.976494,12.4562817 113.788919,11.9773788 C113.602433,11.5006114 113.352696,11.1130043 113.040796,10.817227 C112.728897,10.5219836 112.371194,10.308426 111.965506,10.1765542 C111.56091,10.0452162 111.139955,9.9779456 110.703732,9.9779456 C110.121919,9.9779456 109.581548,10.0703093 109.083163,10.2539688 C108.584778,10.4376284 108.14801,10.7259311 107.773949,11.1231483 C107.399888,11.5203655 107.108709,12.0243614 106.901503,12.6330006 C106.693752,13.2437754 106.590149,13.966134 106.590149,14.8006104 L106.590149,22.2457627 L103.78469,22.2457627 L103.78469,7.78043776 Z" id="Path"/>
                <path d="M124.796489,14.7053138 C124.796489,15.1984891 124.888662,15.664206 125.075179,16.1051564 C125.26061,16.5482604 125.524119,16.9364475 125.864619,17.2745634 C126.206204,17.6126792 126.598213,17.8856485 127.042273,18.0913177 C127.485791,18.2964485 127.97648,18.3987447 128.514883,18.3987447 C129.031055,18.3987447 129.516322,18.2964485 129.971226,18.0913177 C130.425588,17.8856485 130.824104,17.6126792 131.164604,17.2745634 C131.505105,16.9364475 131.768613,16.5482604 131.955129,16.1051564 C132.140561,15.664206 132.233819,15.1984891 132.233819,14.7053138 C132.233819,14.214292 132.140561,13.7458832 131.955129,13.3054711 C131.768613,12.8645207 131.505105,12.4736416 131.164604,12.1360642 C130.824104,11.7979483 130.425588,11.524979 129.971226,11.3193098 C129.516322,11.1163326 129.031055,11.0140365 128.514883,11.0140365 C127.97648,11.0140365 127.485791,11.1163326 127.042273,11.3193098 C126.598213,11.524979 126.206204,11.7979483 125.864619,12.1360642 C125.524119,12.4736416 125.26061,12.8645207 125.075179,13.3054711 C124.888662,13.7458832 124.796489,14.214292 124.796489,14.7053138 L124.796489,14.7053138 Z M136.509592,21.0137584 C136.509592,23.8457477 135.792264,25.9945061 134.355982,27.4621872 C132.919699,28.9271764 130.735726,29.6610169 127.80135,29.6610169 C126.458326,29.6610169 125.136989,29.5129567 123.835714,29.2152209 C122.534439,28.9169468 121.335097,28.3387041 120.240399,27.4772625 L122.813129,23.6605377 C123.535336,24.2538556 124.294413,24.7276485 125.09036,25.0754556 C125.885765,25.423801 126.758703,25.5987813 127.709176,25.5987813 C129.134073,25.5987813 130.183226,25.2558199 130.853925,24.567205 C131.525166,23.8807437 131.861871,23.0047653 131.861871,21.9376545 L131.861871,20.4904326 L131.80006,20.4904326 C131.261658,21.2091979 130.595839,21.7169101 129.800976,22.0151842 C129.005572,22.3107664 128.256796,22.4609803 127.554108,22.4609803 C126.438264,22.4609803 125.425981,22.2709247 124.516715,21.8902752 C123.607449,21.5117793 122.82831,20.9782239 122.17713,20.2901474 C121.526493,19.6036861 121.02496,18.7874702 120.674157,17.8458068 C120.322813,16.9014515 120.147141,15.8644911 120.147141,14.7354642 C120.147141,13.7512672 120.307632,12.786991 120.627528,11.8426356 C120.947967,10.9015106 121.401787,10.0696811 121.990614,9.35091574 C122.579983,8.63215039 123.297311,8.05390771 124.144225,7.61295728 C124.99168,7.17200686 125.952997,6.95180085 127.027091,6.95180085 C127.688031,6.95180085 128.292039,7.02179298 128.840201,7.16716125 C129.387821,7.30983752 129.878511,7.49504746 130.311727,7.72063749 C130.746027,7.94622751 131.117975,8.19658398 131.428112,8.4743989 C131.73825,8.75006021 131.985492,9.02302952 132.172008,9.28846122 L132.233819,9.28846122 L132.233819,7.32006714 L136.509592,7.32006714 L136.509592,21.0137584 Z" id="Shape"/>
                <path d="M150.094398,13.1304161 C150.114452,12.3486277 149.857544,11.6792958 149.320424,11.1213389 C148.783303,10.5655447 148.09117,10.2887289 147.244568,10.2887289 C146.729127,10.2887289 146.273848,10.3714492 145.881983,10.5352679 C145.489576,10.7012493 145.152995,10.9126457 144.874407,11.1689166 C144.59582,11.4257281 144.379021,11.7247108 144.224009,12.0642427 C144.068997,12.4037746 143.980651,12.7606075 143.960597,13.1304161 L150.094398,13.1304161 Z M154.028225,19.7442593 C153.286229,20.6925697 152.345319,21.4240771 151.209831,21.9371595 C150.074344,22.4529452 148.897123,22.7092161 147.678167,22.7092161 C146.522084,22.7092161 145.432666,22.5259338 144.410456,22.1534219 C143.388247,21.7836133 142.499911,21.2532299 141.74599,20.561731 C140.99207,19.8729354 140.398581,19.0430287 139.964982,18.074714 C139.531383,17.1063993 139.314584,16.0250876 139.314584,14.8307788 C139.314584,13.6359293 139.531383,12.5546176 139.964982,11.5868436 C140.398581,10.6185289 140.99207,9.78808153 141.74599,9.09928595 C142.499911,8.4077871 143.388247,7.87740369 144.410456,7.50759508 C145.432666,7.13562384 146.522084,6.95180085 147.678167,6.95180085 C148.751867,6.95180085 149.727465,7.13562384 150.606045,7.50759508 C151.483541,7.87740369 152.227163,8.4077871 152.835828,9.09928595 C153.445034,9.78808153 153.914947,10.6185289 154.246651,11.5868436 C154.575644,12.5546176 154.742038,13.6359293 154.742038,14.8307788 L154.742038,16.2840618 L143.960597,16.2840618 C144.147045,17.1691154 144.549208,17.8730494 145.169797,18.3991075 C145.788217,18.924625 146.552436,19.1890057 147.461368,19.1890057 C148.225044,19.1890057 148.871649,19.0176178 149.397387,18.678086 C149.92421,18.3385541 150.384367,17.9011635 150.776232,17.3653735 L154.028225,19.7442593 Z" id="Shape"/>
                <path d="M157.547029,7.31934599 L162.00508,7.31934599 L162.00508,9.34621776 L162.068472,9.34621776 C162.212053,9.05927462 162.418484,8.77448086 162.686682,8.48646303 C162.955422,8.19951989 163.275635,7.94428021 163.64732,7.71966929 C164.019005,7.49452102 164.442162,7.30913641 164.917333,7.16673953 C165.391421,7.02219327 165.90777,6.95180085 166.464756,6.95180085 C167.641577,6.95180085 168.59192,7.12912526 169.313617,7.48914755 C170.036939,7.84648311 170.598801,8.34406616 171.001911,8.97920996 C171.404479,9.61381641 171.677554,10.3612657 171.82276,11.2210204 C171.966341,12.0807751 172.039486,13.0130717 172.039486,14.0152233 L172.039486,22.2457627 L167.394509,22.2457627 L167.394509,14.9351608 C167.394509,14.5052835 167.378255,14.0603604 167.347913,13.6003916 C167.316488,13.1404228 167.22438,12.7153816 167.069421,12.3258052 C166.914462,11.9356915 166.676605,11.6181196 166.356393,11.3736269 C166.03618,11.1285968 165.577805,11.0060817 164.9791,11.0060817 C164.379311,11.0060817 163.895471,11.1135511 163.523786,11.3284897 C163.152101,11.5434284 162.867107,11.8282222 162.671512,12.1882445 C162.475375,12.54558 162.346423,12.9502021 162.285198,13.4004986 C162.222889,13.8502578 162.191464,14.3225856 162.191464,14.8126458 L162.191464,22.2457627 L157.547029,22.2457627 L157.547029,7.31934599 Z" id="Path"/>
                <path d="M175.199203,22.2457627 L179.632237,22.2457627 L179.632237,7.35378063 L175.199203,7.35378063 L175.199203,22.2457627 Z M174.844478,2.66606044 C174.844478,1.92998544 175.095784,1.30166796 175.597364,0.78057189 C176.099978,0.25947582 176.70601,-1.11022302e-15 177.415461,-1.11022302e-15 C178.124912,-1.11022302e-15 178.730945,0.25947582 179.232524,0.78057189 C179.735138,1.30166796 179.986962,1.92998544 179.986962,2.66606044 C179.986962,3.40159934 179.735138,4.02991682 179.232524,4.55101288 C178.730945,5.07210895 178.124912,5.33158477 177.415461,5.33158477 C176.70601,5.33158477 176.099978,5.07210895 175.597364,4.55101288 C175.095784,4.02991682 174.844478,3.40159934 174.844478,2.66606044 Z" id="Shape"/>
                <path d="M197.751909,22.341671 L193.292233,22.341671 L193.292233,20.3147992 L193.230466,20.3147992 C193.065755,20.6022797 192.853905,20.8870734 192.59546,21.1745539 C192.337014,21.4614971 192.023303,21.7167367 191.651619,21.9413477 C191.279934,22.1664959 190.856235,22.3518805 190.381605,22.4942774 C189.906434,22.6388237 189.391168,22.7092161 188.833099,22.7092161 C187.655736,22.7092161 186.701059,22.5318917 185.968525,22.1718694 C185.23545,21.8145338 184.66817,21.3169508 184.26506,20.681807 C183.863034,20.0493499 183.594836,19.2997513 183.459924,18.4399965 C183.326096,17.5802418 183.259452,16.650632 183.259452,15.6457937 L183.259452,7.41525424 L187.904429,7.41525424 L187.904429,14.7258561 C187.904429,15.1557335 187.9196,15.6006566 187.951025,16.0606253 C187.980825,16.5205941 188.074559,16.9477848 188.229518,17.3352117 C188.383935,17.7253254 188.62125,18.0428973 188.941462,18.2873901 C189.261133,18.5324202 189.72005,18.6549352 190.319838,18.6549352 C190.918543,18.6549352 191.403468,18.5474659 191.775152,18.3325272 C192.146837,18.1175885 192.430206,17.8327948 192.626885,17.4727725 C192.82248,17.1154369 192.951974,16.7108149 193.013741,16.2605183 C193.075507,15.8107591 193.106933,15.3384314 193.106933,14.8483712 L193.106933,7.41525424 L197.751909,7.41525424 L197.751909,22.341671 Z" id="Path"/>
                <path d="M209.335409,11.7398492 C208.665971,10.8948041 207.784741,10.4720112 206.689588,10.4720112 C206.303251,10.4720112 205.928621,10.5655447 205.564635,10.7515303 C205.199584,10.9375159 205.016526,11.2570435 205.016526,11.7095725 C205.016526,12.0793811 205.203309,12.3534936 205.579535,12.5292068 C205.954164,12.7027573 206.430965,12.8590069 207.008874,12.9920082 C207.586783,13.1255502 208.204602,13.268824 208.863929,13.4245329 C209.522724,13.5780792 210.141075,13.821915 210.718984,14.1511744 C211.297425,14.4809745 211.773694,14.9286375 212.148856,15.4941636 C212.523485,16.0629335 212.711864,16.8198517 212.711864,17.7654589 C212.711864,18.7359361 212.503796,19.5334035 212.087659,20.1616457 C211.672054,20.7904284 211.13991,21.2932384 210.491226,21.6754821 C209.84201,22.0555632 209.111376,22.3242691 208.30092,22.4778154 C207.490465,22.6335243 206.689588,22.7092161 205.898821,22.7092161 C204.864333,22.7092161 203.819734,22.5610764 202.766088,22.261553 C201.710846,21.964733 200.819504,21.4343496 200.089402,20.6698622 L202.856552,17.5491965 C203.282268,18.0844458 203.753748,18.4921003 204.270992,18.7710788 C204.788768,19.0478946 205.391156,19.1884651 206.080815,19.1884651 C206.60817,19.1884651 207.084439,19.1106106 207.510154,18.9549018 C207.93587,18.8013555 208.148727,18.5196738 208.148727,18.1071534 C208.148727,17.7146372 207.961945,17.4205204 207.586783,17.224803 C207.210557,17.0307075 206.735352,16.8647262 206.157443,16.7317248 C205.579535,16.5981828 204.960651,16.4522057 204.302388,16.2992001 C203.642529,16.1434912 203.023646,15.9115499 202.445737,15.6028354 C201.868893,15.2930396 201.391559,14.855649 201.016397,14.2895823 C200.641236,13.7240562 200.454453,12.967138 200.454453,12.0188276 C200.454453,11.133774 200.631657,10.3714492 200.986597,9.73023135 C201.341005,9.09387939 201.807164,8.56836189 202.385073,8.15638212 C202.962981,7.74386169 203.627629,7.43947244 204.377953,7.24321436 C205.127744,7.04965956 205.887646,6.95180085 206.658723,6.95180085 C207.632547,6.95180085 208.614886,7.09507465 209.608931,7.38432554 C210.602977,7.67087315 211.444297,8.18611819 212.133956,8.9284387 L209.335409,11.7398492 Z" id="Path"/>
            </g> -->
        </g>
    </g>
</svg>